<?xml version="1.0" encoding="UTF-8" standalone="no"?>
<svg
   class="svg-icon"
   style="width: 1em; height: 1em;vertical-align: middle;fill: currentColor;overflow: hidden;"
   viewBox="0 0 1024 1024"
   version="1.1"
   id="svg7"
   sodipodi:docname="logo.svg"
   inkscape:version="1.4 (e7c3feb1, 2024-10-09)"
   xmlns:inkscape="http://www.inkscape.org/namespaces/inkscape"
   xmlns:sodipodi="http://sodipodi.sourceforge.net/DTD/sodipodi-0.dtd"
   xmlns="http://www.w3.org/2000/svg"
   xmlns:svg="http://www.w3.org/2000/svg">
  <defs
     id="defs7" />
  <sodipodi:namedview
     id="namedview7"
     pagecolor="#ffffff"
     bordercolor="#000000"
     borderopacity="0.25"
     inkscape:showpageshadow="2"
     inkscape:pageopacity="0.0"
     inkscape:pagecheckerboard="0"
     inkscape:deskcolor="#d1d1d1"
     inkscape:zoom="0.87890625"
     inkscape:cx="512.56889"
     inkscape:cy="329.95556"
     inkscape:window-width="1736"
     inkscape:window-height="1027"
     inkscape:window-x="0"
     inkscape:window-y="25"
     inkscape:window-maximized="0"
     inkscape:current-layer="g7" />
  <g
     id="g7"
     transform="matrix(1.5033103,0,0,1.5033103,-265.75673,-250.83408)">
    <path
       d="m 275.47519,593.85226 c 0,134.35061 108.94818,242.73429 242.73429,242.73429 133.78611,0 242.73429,-108.94818 242.73429,-242.73429 0,-133.78611 -108.94818,-242.73429 -242.73429,-242.73429 -133.78611,0 -242.73429,108.38368 -242.73429,242.73429"
       fill="#ff9f20"
       id="path1"
       style="fill:#fdb338;fill-opacity:1" />
    <path
       d="m 322.32856,593.85226 c 0,-125.88313 95.40022,-229.18633 218.46086,-241.60529 -7.90298,-0.5645 -16.37046,-1.129 -24.27343,-1.129 -134.35061,0 -242.73429,108.94818 -242.73429,242.73429 0,133.78611 108.94818,242.73429 242.73429,242.73429 8.46747,0 16.37045,-0.5645 24.83792,-1.129 C 418.29328,823.03859 322.32856,719.73539 322.32856,593.85226"
       fill="#f18700"
       id="path2" />
    <path
       d="m 462.88864,229.75083 c 34.4344,34.4344 30.48291,93.70672 30.48291,93.70672 0,0 -59.27232,3.95149 -93.70672,-30.48291 -34.4344,-34.4344 -30.48291,-93.70672 -30.48291,-93.70672 0,-1e-5 59.27232,-3.95149 93.70672,30.48291"
       fill="#65c27c"
       id="path3" />
    <path
       d="m 499.01654,347.16648 c -19.75744,0 -75.64278,-3.38699 -111.20618,-39.51488 -43.46637,-43.46637 -39.51488,-115.72216 -38.95038,-118.54465 l 0.5645,-10.16097 10.16097,-0.5645 c 2.82249,0 75.07828,-3.95149 118.54465,38.95038 43.46637,43.46638 39.51488,115.72216 38.95039,118.54466 l -0.5645,10.16097 -10.16097,0.5645 c -0.5645,0.56449 -2.82249,0.56449 -7.33848,0.56449 M 371.43991,201.52591 c 0.5645,19.75744 5.64499,63.22381 32.74091,90.31973 27.09592,27.09593 70.56229,32.17641 90.31973,32.74091 -0.5645,-19.75744 -5.64498,-63.22382 -32.7409,-90.31974 -27.09592,-27.66041 -70.5623,-32.1764 -90.31974,-32.7409"
       fill=""
       id="path4"
       style="stroke:none;stroke-opacity:1;stroke-width:0.99979359;stroke-dasharray:none;fill:#171d1d;fill-opacity:1" />
    <path
       d="m 385.55237,425.63175 c 0,6.20948 3.38699,12.41897 9.03197,15.24146 5.64499,3.38699 12.41897,3.38699 18.06395,0 5.64498,-3.38699 9.03197,-9.03198 9.03197,-15.24146 0,-6.20948 -3.38699,-12.41896 -9.03197,-15.24145 -5.64498,-3.38699 -12.41896,-3.38699 -18.06395,0 -5.64498,3.38699 -9.03197,9.03197 -9.03197,15.24145 m -53.62734,170.4785 c -3.95149,0 -7.33848,-2.25799 -8.46748,-6.20948 -5.64498,-15.24145 -5.64498,-36.69239 -0.5645,-65.48181 5.08049,-28.78941 19.19295,-53.06284 40.64389,-72.25578 3.95148,-3.38699 9.59647,-2.8225 12.41896,0.56449 3.38699,3.95149 2.82249,9.59648 -0.5645,12.41897 -18.62844,16.37045 -30.48291,37.25689 -34.9989,62.09482 -4.51598,25.40242 -4.51598,44.03087 -0.5645,56.44983 1.129,2.82249 0.5645,5.64498 -1.12899,7.90298 -1.129,3.38699 -3.95149,4.51598 -6.77398,4.51598 z"
       fill="#ffffff"
       id="path5" />
    <path
       d="m 536.83793,353.94046 c -3.95149,0 -7.33848,-1.69349 -9.59647,-4.51598 -2.258,-3.38699 -2.8225,-6.77398 -2.258,-10.72547 11.28997,-41.20838 35.5634,-76.20728 68.3043,-98.78721 33.3054,-23.14443 72.25579,-30.48291 108.38368,-20.32194 6.20949,1.69349 9.59648,8.46747 7.90298,14.67695 -1.69349,6.20949 -7.90298,10.16097 -14.11246,8.46748 -29.35391,-7.90298 -60.96582,-1.6935 -88.62624,16.93495 -28.22491,19.19294 -49.11135,49.67585 -58.70783,85.23925 -1.12899,5.08049 -6.20948,9.03197 -11.28996,9.03197"
       fill=""
       id="path6"
       style="fill:#171d1d;fill-opacity:1" />
    <path
       d="m 369.18192,200.39691 c 0,0 -3.95149,59.27233 30.48291,93.70673 34.4344,34.4344 93.70672,30.48291 93.70672,30.48291 z"
       fill="#267a38"
       id="path7" />
  </g>
</svg>
