<?xml version="1.0" encoding="UTF-8" standalone="no"?>
<svg
   width="247"
   height="210"
   viewBox="0 0 247 210"
   fill="none"
   version="1.1"
   id="svg4"
   sodipodi:docname="logo.svg"
   inkscape:version="1.4 (e7c3feb1, 2024-10-09)"
   xmlns:inkscape="http://www.inkscape.org/namespaces/inkscape"
   xmlns:sodipodi="http://sodipodi.sourceforge.net/DTD/sodipodi-0.dtd"
   xmlns:xlink="http://www.w3.org/1999/xlink"
   xmlns="http://www.w3.org/2000/svg"
   xmlns:svg="http://www.w3.org/2000/svg">
  <sodipodi:namedview
     id="namedview4"
     pagecolor="#ffffff"
     bordercolor="#000000"
     borderopacity="0.25"
     inkscape:showpageshadow="2"
     inkscape:pageopacity="0.0"
     inkscape:pagecheckerboard="0"
     inkscape:deskcolor="#d1d1d1"
     inkscape:zoom="2"
     inkscape:cx="188"
     inkscape:cy="105.25"
     inkscape:window-width="1920"
     inkscape:window-height="1080"
     inkscape:window-x="0"
     inkscape:window-y="0"
     inkscape:window-maximized="0"
     inkscape:current-layer="svg4" />
  <mask
     id="mask0"
     mask-type="alpha"
     maskUnits="userSpaceOnUse"
     x="0"
     y="0"
     width="265"
     height="210">
    <rect
       width="265"
       height="210"
       fill="url(#paint0_linear)"
       id="rect1" />
  </mask>
  <defs
     id="defs4">
    <linearGradient
       id="linearGradient90"
       inkscape:collect="always">
      <stop
         style="stop-color:#f0880a;stop-opacity:0.96078401;"
         offset="0"
         id="stop90" />
      <stop
         style="stop-color:#ffffff;stop-opacity:0.35950413;"
         offset="1"
         id="stop91" />
    </linearGradient>
    <linearGradient
       id="paint0_linear"
       x1="0"
       y1="0"
       x2="203.966"
       y2="257.386"
       gradientUnits="userSpaceOnUse">
      <stop
         stop-color="#6A98F0"
         id="stop1" />
      <stop
         offset="1"
         stop-color="#4961DC"
         id="stop2" />
    </linearGradient>
    <linearGradient
       id="paint1_linear"
       x1="-4.92676"
       y1="3.55933"
       x2="355.659"
       y2="217.576"
       gradientUnits="userSpaceOnUse"
       gradientTransform="translate(3,-24)">
      <stop
         stop-color="#6A98F0"
         id="stop3" />
      <stop
         offset="1"
         stop-color="#4961DC"
         id="stop4" />
    </linearGradient>
    <linearGradient
       inkscape:collect="always"
       xlink:href="#linearGradient90"
       id="linearGradient91"
       x1="113"
       y1="108.5"
       x2="53"
       y2="46.5"
       gradientUnits="userSpaceOnUse" />
    <filter
       inkscape:collect="always"
       style="color-interpolation-filters:sRGB"
       id="filter93"
       x="-0.76093877"
       y="-0.34891045"
       width="2.5218775"
       height="1.6978209">
      <feGaussianBlur
         inkscape:collect="always"
         stdDeviation="6.1419572"
         id="feGaussianBlur93" />
    </filter>
  </defs>
  <circle
     style="fill:#f0880a;stroke:none;stroke-width:1.13386;stroke-linejoin:bevel;paint-order:markers stroke fill;fill-opacity:0.96078432"
     id="path4"
     cx="126.75"
     cy="124.25"
     r="84.75" />
  <path
     style="fill:url(#linearGradient91);fill-opacity:1;stroke:none;stroke-width:0.566929;stroke-linejoin:bevel;paint-order:markers stroke fill"
     d="M 114,207.46441 C 99.99883,205.35098 90.593421,201.41239 76.315132,191.68356 73.838501,189.99605 66.47144,183.08076 63.069302,179.25 49.329724,163.77942 41.707066,141.92508 42.664862,120.75 43.795367,95.75666 55.051555,73.775257 74.841648,57.914264 77.131195,56.079281 83.838993,51.5 84.237356,51.5 c 0.155384,0 1.206144,-0.583061 2.335024,-1.295692 4.060762,-2.563447 14.55505,-6.596873 21.17762,-8.139508 4.63539,-1.079749 12.46399,-1.949191 18.25,-2.026837 12.87654,-0.1728 29.42246,3.741454 39.38754,9.317876 1.29935,0.72711 3.21888,1.780509 4.26563,2.340887 1.04674,0.560377 4.19674,2.749919 7,4.865648 14.46392,10.916497 24.05112,24.156794 30.36671,41.937626 1.94379,5.47249 3.40639,13.85622 3.78234,21.68049 0.88229,18.36254 -4.04092,35.75 -14.62779,51.66143 -5.72198,8.59978 -18.22048,20.3126 -26.74806,25.06663 -17.92965,9.99559 -36.1498,13.46558 -55.42637,10.55586 z"
     id="path90" />
  <path
     style="fill:#ffffff;fill-opacity:0.96078402;stroke:none;stroke-width:1.134;stroke-linejoin:bevel;stroke-dasharray:none;paint-order:stroke fill markers;filter:url(#filter93);opacity:1"
     d="m 55,119 c -0.85608,-2.41971 -0.647995,-5.03597 -1,-7.5 -0.463343,-3.2434 -0.36837,-1.44793 0,-5.5 0.07545,-0.82991 -0.180775,-1.68651 0,-2.5 0.16169,-0.72761 0.795235,-1.28332 1,-2 0.655568,-2.294488 0.559989,-4.806641 1.5,-7 0.236716,-0.552337 0.776822,-0.942055 1,-1.5 0.123797,-0.309492 -0.105409,-0.683772 0,-1 0.07454,-0.223607 0.425464,-0.276393 0.5,-0.5 0.105409,-0.316228 0,-0.666667 0,-1 0.333333,-0.833333 0.564122,-1.71542 1,-2.5 2.006738,-3.612129 0.78409,-0.71212 2.5,-3 1.681033,-2.241377 2.957914,-4.468436 5,-6 1.292209,-0.969157 3.618966,-2.940517 5.5,-2 2.08088,1.04044 -0.534518,-0.03452 0.5,1 0.117851,0.117851 0.382149,-0.117851 0.5,0 0.132353,0.132353 0,1.294118 0,1.5 0,1.990332 -0.134924,3.134924 -1.5,4.5 -0.40566,0.40566 -1.245283,0.990566 -1.5,1.5 -0.256366,0.512732 -0.243634,1.487268 -0.5,2 -0.196603,0.393207 -0.770123,1.770123 -1,2 -0.117851,0.117851 -0.382149,-0.117851 -0.5,0 -0.24586,0.24586 -1.919431,4.129147 -2.5,5 -0.292353,0.438529 -0.127322,1.127322 -0.5,1.5 -0.117851,0.117851 -0.382149,-0.117851 -0.5,0 -0.117851,0.117851 0.07454,0.350929 0,0.5 -0.733983,1.467966 -2.731206,2.462411 -3.5,4 -0.363802,0.7276 -0.55384,1.83076 -1,2.5 -0.261488,0.39223 -0.789181,0.57836 -1,1 -0.149071,0.29814 0.105409,0.68377 0,1 -0.263523,0.79057 -1.127322,1.25464 -1.5,2 -0.149071,0.29814 0.06537,0.67314 0,1 -0.287659,1.4383 -0.444732,2.38946 -1,3.5 -0.430877,0.86175 0.224635,3.17634 0,4 -0.333974,1.22457 -1,2.33333 -1.5,3.5 z"
     id="path93" />
  <path
     style="fill:#6b2d0a;fill-opacity:1;stroke:none;stroke-width:1.134;stroke-linejoin:bevel;paint-order:stroke fill markers;stroke-dasharray:none"
     d="m 84,109.5 c 1.303406,-2.71823 3.575507,-4.85451 5,-7.5 3.20364,-5.949609 4.94557,-13.346856 5.5,-20 C 94.89033,77.31602 95.40483,69.453128 95,65 93.84018,52.241999 86.61163,39.649857 78,30.5 c -1.071608,-1.138584 -7.92422,-6.555079 -8.5,-7 -4.238354,-3.275092 -12.504466,-10 -18.5,-10 -3.47099,0 -18.98533,4.615831 -22,6.5 -3.101703,1.938564 -3.807447,5.899362 -5,9 -0.455651,1.184691 -1.209281,2.264446 -1.5,3.5 -1.106146,4.701118 -0.746452,10.380322 2,14.5 2.03021,3.045315 6.937419,2 10,2 5.531229,0 10.975215,-0.5 16.5,-0.5 2.166667,0 4.368282,-0.387585 6.5,0 9.147018,1.663094 9.7043,8.4086 13,15 0.372678,0.745356 1.190508,1.226269 1.5,2 1.469352,3.67338 1.140527,9.545796 1.5,13.5 0.06221,0.684362 0.414765,1.318122 0.5,2 0.248069,1.984556 0,4 0,6 0,3.121963 -0.748012,7.87997 0.5,11 1.432217,3.58054 6.429839,4.60178 8.5,7.5 0.798835,1.11837 -0.229273,3.38536 1,4 1.520234,0.76012 3.317409,-0.75963 5,-1 1.46461,-0.20923 3.51985,0 5,0"
     id="path91" />
  <path
     style="fill:#268d0d;fill-opacity:1;stroke:none;stroke-width:1.134;stroke-linejoin:bevel;stroke-dasharray:none;paint-order:stroke fill markers"
     d="M 96,73.5 C 96.24593,67.004515 94.84997,60.500321 95.5,54 c 0.1918,-1.918037 1.85206,-4.315347 2.5,-6 0.43557,-1.132476 0.66667,-2.333333 1,-3.5 0.66667,-1.166667 1.43691,-2.279966 2,-3.5 0.44173,-0.957073 0.49525,-2.074617 1,-3 0.51102,-0.936879 1.38801,-1.625726 2,-2.5 0.55731,-0.79615 0.86005,-1.768627 1.5,-2.5 0.54875,-0.627147 1.41074,-0.910744 2,-1.5 0.58926,-0.589256 0.88338,-1.439439 1.5,-2 3.0225,-2.747726 4.9628,-3.510327 8.5,-5.5 1.17114,-0.658769 2.23457,-1.548062 3.5,-2 1.10985,-0.396376 2.33752,-0.306254 3.5,-0.5 2.41775,-0.402958 11.6782,-1.160902 13,-0.5 0.42449,0.212245 -0.12473,3.124027 -0.5,4.5 -0.87376,3.203797 -2.0566,6.316014 -3,9.5 -1.75715,5.930392 -3.22466,11.449315 -6,17 -0.38526,0.770525 -2.93288,2.923288 -3,3 -0.70226,0.802585 -1.52201,2.301438 -2.5,3 -5.55745,3.969607 -11.78806,6.782276 -18,9.5 -0.82228,0.359746 -1.69723,0.598614 -2.5,1 -0.21082,0.105409 -0.27134,0.442834 -0.5,0.5 -0.61099,0.152747 -5.92645,0.705803 -6,1 -0.28583,1.143324 1.60347,3.086197 0.5,3.5 -1.680762,0.630286 -3.204945,-2 -5,-2"
     id="path92" />
</svg>
